# xmcd
#
# Track frame offsets:
#	150
#	37955
#	67531
#	101685
#	193362
#	235178
#
# Disc length: 3692 seconds
#
# Revision: 1
# Processed by: cddbd v1.5.2PL0 Copyright (c) Steve Scherf et al.
# Submitted via: audiograbber 1.83.01
#
DISCID=460e6a06
DTITLE=Grateful Dead - 73-07-28A Grand Prix Racecourse, Watkins Glen NY
DYEAR=1900
DGENRE=
TTITLE0=China Cat Sunflower
TTITLE1=I Know You Rider
TTITLE2=Stella Blue
TTITLE3=Eyes Of The World
TTITLE4=Sugar Magnolia
TTITLE5=Sing Me Back Home
EXTD=
EXTT0=
EXTT1=
EXTT2=
EXTT3=
EXTT4=
EXTT5=
PLAYORDER=
